<svg width="12" height="15" viewBox="0 0 12 15" fill="none" xmlns="http://www.w3.org/2000/svg">
<path d="M6 0C2.685 0 0 1.49167 0 3.33333C0 5.175 2.685 6.66667 6 6.66667C9.315 6.66667 12 5.175 12 3.33333C12 1.49167 9.315 0 6 0ZM0 5V7.5C0 9.34167 2.685 10.8333 6 10.8333C9.315 10.8333 12 9.34167 12 7.5V5C12 6.84167 9.315 8.33333 6 8.33333C2.685 8.33333 0 6.84167 0 5ZM0 9.16667V11.6667C0 13.5083 2.685 15 6 15C9.315 15 12 13.5083 12 11.6667V9.16667C12 11.0083 9.315 12.5 6 12.5C2.685 12.5 0 11.0083 0 9.16667Z" fill="#FFB905"/>
</svg>
